<svg xmlns="http://www.w3.org/2000/svg" viewBox="0 0 286.42 286.41"><defs><style>.cls-1{fill:#c6c6c6;}</style></defs><g id="Слой_2" data-name="Слой 2"><g id="Слой_1-2" data-name="Слой 1"><path class="cls-1" d="M37.78,185a105.64,105.64,0,0,1,1.27-16.41,105,105,0,0,1,23.81-51.83,105.4,105.4,0,0,1,54.44-34v34h51.82V2.34a144.62,144.62,0,0,0-51.82,0A143.14,143.14,0,0,0,2.44,116.74,143.25,143.25,0,0,0,91,276.6,105.38,105.38,0,0,1,37.78,185Z"/><path class="cls-1" d="M284,116.74A143.41,143.41,0,0,0,201.5,12.36a106,106,0,0,1-32.38,191.29V168.57H117.3v115.5A143.33,143.33,0,0,0,284,116.74Z"/></g></g></svg>